<svg height="512" viewBox="0 0 59 59" width="512" xmlns="http://www.w3.org/2000/svg"><g id="Page-1" fill="none" fill-rule="evenodd"><g id="031---Bomb"><g fill-rule="nonzero"><path id="Rectangle-path" d="m39.533 10.045h16.844v2h-16.844z" fill="#ca8152" transform="matrix(.707 -.707 .707 .707 6.236 37.145)"/><path id="Shape" d="m55.436.606.4.9c.1812061.40608063.6039867.6485934 1.046.6l.982-.106c.4002364-.04528264.7894321.15014876.9921573.49820367.2027252.34805492.1806962.78300478-.0561573 1.10879633l-.584.793c-.2640296.35643022-.2640296.84356978 0 1.2l.584.793c.2368535.32579155.2588825.76074141.0561573 1.10879633-.2027252.34805491-.5919209.54348631-.9921573.49820367l-.983-.1c-.4418773-.04794224-.8643006.19436557-1.046.6l-.4.9c-.1654921.36862305-.5319324.6057858-.936.6057858s-.7705079-.23716275-.936-.6057858l-.4-.9c-.1816994-.40563443-.6041227-.64794224-1.046-.6l-.981.1c-.4002364.04528264-.7894321-.15014876-.9921573-.49820367-.2027252-.34805492-.1806962-.78300478.0561573-1.10879633l.584-.793c.2640296-.35643022.2640296-.84356978 0-1.2l-.584-.793c-.2368535-.32579155-.2588825-.76074141-.0561573-1.10879633.2027252-.34805491.5919209-.54348631.9921573-.49820367l.983.106c.4420133.0485934.8647939-.19391937 1.046-.6l.4-.9c.1657486-.36802329.5318742-.60467382.9355-.60467382s.7697514.23665053.9355.60467382z" fill="#f2d45b"/><path id="Shape" d="m36.28 12.82 1.57-1.56c.5621155-.5663463 1.3270514-.8848744 2.125-.8848744s1.5628845.3185281 2.125.8848744l5.65 5.65c.5663463.5621155.8848744 1.3270514.8848744 2.125s-.3185281 1.5628845-.8848744 2.125l-1.57 1.57z" fill="#56595e"/><path id="Shape" d="m49 34c.013775 12.1447507-9.033035 22.3921973-21.0858004 23.8841773-12.0527655 1.4919801-23.32522574-6.2401978-26.27322201-18.0217289-2.94799626-11.7815312 3.35455622-23.9113608 14.68963791-28.2715307 11.3350817-4.36016981 24.1418856.4190256 29.8493845 11.1390823 1.8485325 3.4691257 2.8168871 7.33911 2.82 11.27z" fill="#393f4a"/><path id="Shape" d="m5.633 30c-.08435912.0000719-.1683787-.0106826-.25-.032-.53452607-.1381848-.85593035-.6834082-.718-1.218 2.39416199-9.2725497 10.7583519-15.7508379 20.335-15.75.5522847 0 1 .4477153 1 1s-.4477153 1-1 1c-8.6652069-.0015182-16.23369838 5.8599494-18.4 14.25-.11388332.4410697-.51146565.7494324-.967.75z" fill="#fff"/></g><path id="Shape" d="m18.074 27c1.4294226-2.4737731 4.0689387-3.9981832 6.926-4" stroke="#000" stroke-linecap="round" stroke-linejoin="round" stroke-width="2"/><path id="Shape" d="m35.22 37.31c.9791608 1.5340645 1.0474595 3.4790046.1783187 5.0779743-.8691409 1.5989696-2.5384422 2.5994145-4.3583187 2.6120257-.2711476-.0075228-.5339652.0941205-.7294926.2821277-.1955274.1880071-.3073953.4466382-.3105074.7178723v1c-.0032948 1.1032019-.8967981 1.9967052-2 2h-2v-2c0-.5522847-.4477153-1-1-1s-1 .4477153-1 1v2h-2c-1.1032019-.0032948-1.9967052-.8967981-2-2v-1.01c.0000133-.2669582-.1067151-.5228394-.2964199-.7106659-.1897047-.1878265-.4466352-.2920037-.7135801-.2893341h-.08c-1.0515239-.0067004-2.0725476-.354059-2.91-.99-2.089574-1.5703092-2.6207712-4.4831854-1.22-6.69-3.09647-5.0319434-2.0693965-11.5690928 2.4209665-15.4090433 4.490363-3.8399506 11.107704-3.8399506 15.598067 0 4.490363 3.8399505 5.5174365 10.3770999 2.4209665 15.4090433z" fill="#f8e9af" fill-rule="nonzero"/><circle id="Oval" cx="5" cy="33" fill="#fff" fill-rule="nonzero" r="1"/><path id="Shape" d="m23 33c0 1.6568542-1.3431458 3-3 3s-3-1.3431458-3-3c0-1.657 1.343-2 3-2s3 .343 3 2z" fill="#603e26" fill-rule="nonzero"/><path id="Shape" d="m33 33c0 1.6568542-1.3431458 3-3 3s-3-1.3431458-3-3c0-1.657 1.343-2 3-2s3 .343 3 2z" fill="#603e26" fill-rule="nonzero"/><path id="Shape" d="m27 42c-.2651948-.0000566-.5195073-.1054506-.707-.293l-1.293-1.293-1.293 1.293c-.3923789.3789722-1.0160848.3735524-1.4018186-.0121814s-.3911536-1.0094397-.0121814-1.4018186l2-2c.3904999-.3903819 1.0235001-.3903819 1.414 0l2 2c.2859079.2859943.3714219.7160366.216678 1.0896546-.1547439.3736179-.5192821.6172591-.923678.6173454z" fill="#603e26" fill-rule="nonzero"/></g></g></svg>