<?xml version="1.0" encoding="iso-8859-1"?>
<!-- Generator: Adobe Illustrator 19.0.0, SVG Export Plug-In . SVG Version: 6.00 Build 0)  -->
<svg version="1.1" id="Capa_1" xmlns="http://www.w3.org/2000/svg" xmlns:xlink="http://www.w3.org/1999/xlink" x="0px" y="0px"
	 viewBox="0 0 512 512" style="enable-background:new 0 0 512 512;" xml:space="preserve">
<polygon style="fill:#EB874B;" points="504.499,245.863 367.697,209.47 437.08,87.492 308.593,146.445 282.341,8.965 
	222.29,135.679 112.686,47.026 149.171,182.21 7.499,183.866 123.446,264.266 15.999,355.455 157.156,343.452 134.207,481.507 
	234.526,382.715 306.813,503.038 319.353,363.685 453.053,409.975 371.946,295.265 "/>
<polygon style="fill:#FFDC64;" points="363.576,248.511 302.952,232.384 333.699,178.329 276.759,204.454 265.124,143.529 
	238.514,199.683 189.943,160.396 206.111,220.303 143.328,221.037 194.712,256.667 147.095,297.077 209.649,291.758 
	199.479,352.938 243.936,309.158 275.971,362.479 281.527,300.724 340.777,321.238 304.835,270.404 "/>
<polygon style="fill:#FFF082;" points="295.078,254.407 273.565,248.684 284.476,229.502 264.27,238.773 260.142,217.153 
	250.699,237.08 233.462,223.139 239.201,244.397 216.921,244.658 235.154,257.301 218.257,271.642 240.456,269.754 236.848,291.464 
	252.623,275.928 263.99,294.85 265.962,272.936 286.988,280.215 274.233,262.176 "/>
<path d="M506.427,238.615l-127.401-33.893L443.6,91.2c1.609-2.831,1.209-6.376-0.99-8.776c-2.201-2.401-5.7-3.105-8.657-1.749
	l-119.788,54.961L289.708,7.558c-0.609-3.188-3.198-5.622-6.418-6.033c-3.215-0.416-6.337,1.295-7.727,4.228l-55.97,118.1
	l-102.19-82.658c-2.527-2.045-6.086-2.229-8.809-0.454c-2.725,1.774-3.996,5.101-3.149,8.239l33.963,125.844L7.412,176.366
	c-3.263,0.038-6.127,2.182-7.083,5.302c-0.956,3.121,0.216,6.501,2.897,8.36l107.924,74.837l-100.004,84.87
	c-2.487,2.111-3.325,5.588-2.072,8.6s4.299,4.871,7.561,4.592l131.54-11.185l-21.366,128.534c-0.533,3.205,1.059,6.389,3.942,7.886
	c2.884,1.496,6.403,0.967,8.719-1.313l93.533-92.107l67.382,112.157c1.376,2.291,3.836,3.639,6.428,3.639
	c0.557-0.001,1.12-0.063,1.679-0.191c3.164-0.726,5.501-3.404,5.792-6.638l11.681-129.8l124.634,43.153
	c3.08,1.069,6.494,0.024,8.45-2.582c1.957-2.604,2.009-6.175,0.128-8.835L383.695,298.89l123.424-45.999
	c3.06-1.14,5.03-4.129,4.872-7.391C511.832,242.239,509.583,239.455,506.427,238.615z M369.327,288.238
	c-2.181,0.813-3.861,2.592-4.548,4.816c-0.686,2.224-0.301,4.641,1.043,6.541l67.638,95.659l-111.652-38.657
	c-2.178-0.756-4.586-0.466-6.525,0.788c-1.938,1.253-3.191,3.328-3.398,5.627L301.406,479.47l-60.449-100.617
	c-1.184-1.971-3.205-3.289-5.486-3.578c-0.314-0.04-0.629-0.06-0.942-0.06c-1.957,0-3.851,0.766-5.263,2.156l-83.873,82.596
	l19.164-115.286c0.38-2.284-0.317-4.615-1.888-6.316c-1.571-1.702-3.848-2.586-6.146-2.386L38.737,345.994l89.563-76.009
	c1.777-1.509,2.752-3.757,2.639-6.084s-1.303-4.47-3.218-5.798l-96.64-67.012l118.177-1.381c2.318-0.027,4.494-1.125,5.893-2.974
	s1.864-4.241,1.261-6.479L125.954,67.404l91.619,74.106c1.788,1.447,4.143,1.994,6.383,1.481c2.243-0.511,4.127-2.022,5.111-4.101
	l50.216-105.958l21.943,114.919c0.433,2.264,1.882,4.204,3.931,5.26s4.471,1.112,6.564,0.15l107.332-49.247l-57.876,101.747
	c-1.149,2.022-1.297,4.462-0.397,6.607c0.898,2.145,2.741,3.751,4.989,4.35l114.049,30.34L369.327,288.238z"/>
<path d="M314.281,227.636l25.938-45.6c1.609-2.83,1.209-6.375-0.99-8.776c-2.2-2.401-5.698-3.106-8.657-1.749l-48.239,22.134
	l-1.141-5.974c-0.777-4.069-4.71-6.736-8.773-5.96c-4.069,0.776-6.737,4.705-5.961,8.773l2.936,15.375
	c0.433,2.264,1.882,4.204,3.931,5.26c2.05,1.056,4.47,1.112,6.564,0.15l35.784-16.419l-19.239,33.824
	c-1.149,2.021-1.297,4.462-0.397,6.606c0.898,2.145,2.741,3.751,4.989,4.35l37.87,10.075l-36.679,13.67
	c-2.181,0.813-3.861,2.592-4.548,4.816c-0.686,2.224-0.301,4.641,1.043,6.541l22.473,31.783l-37.201-12.88
	c-2.181-0.758-4.588-0.466-6.525,0.788c-1.938,1.253-3.191,3.328-3.398,5.627l-3.497,38.859l-20.196-33.616
	c-1.184-1.971-3.205-3.289-5.486-3.578c-2.276-0.289-4.566,0.483-6.205,2.097l-28.011,27.585l0.943-5.678
	c0.68-4.086-2.083-7.949-6.169-8.628c-4.091-0.679-7.948,2.083-8.628,6.169l-4.729,28.446c-0.533,3.205,1.059,6.389,3.942,7.886
	c2.884,1.496,6.403,0.967,8.719-1.313l37.67-37.097l27.13,45.156c1.376,2.29,3.836,3.639,6.428,3.639
	c0.557,0,1.119-0.063,1.679-0.191c3.164-0.726,5.501-3.404,5.792-6.638l4.698-52.201l50.185,17.375
	c3.079,1.066,6.493,0.023,8.45-2.582c1.957-2.604,2.009-6.175,0.128-8.835l-30.317-42.879l49.611-18.49
	c3.06-1.14,5.03-4.129,4.872-7.391c-0.158-3.261-2.407-6.046-5.563-6.885L314.281,227.636z"/>
<path d="M217.122,291.123c-0.351-4.127-3.961-7.191-8.108-6.837l-39.182,3.331l29.731-25.232c1.776-1.508,2.751-3.756,2.638-6.083
	c-0.113-2.328-1.303-4.47-3.218-5.798l-32.074-22.242l39.288-0.459c2.318-0.027,4.494-1.125,5.893-2.974s1.864-4.241,1.261-6.479
	l-10.141-37.576l30.587,24.74c1.789,1.447,4.146,1.994,6.383,1.481c2.243-0.511,4.127-2.022,5.111-4.101l26.611-56.154
	c1.774-3.743,0.178-8.215-3.565-9.989c-3.74-1.772-8.215-0.178-9.989,3.565l-22.529,47.54l-41.159-33.292
	c-2.528-2.044-6.085-2.229-8.809-0.454c-2.725,1.774-3.996,5.101-3.149,8.239l13.646,50.566l-53.107,0.621
	c-3.263,0.038-6.127,2.182-7.083,5.302c-0.956,3.121,0.216,6.501,2.897,8.36l43.358,30.066l-40.172,34.094
	c-2.486,2.11-3.324,5.587-2.071,8.599c1.171,2.814,3.915,4.619,6.922,4.619c0.211,0,0.425-0.009,0.639-0.027l62.555-5.319
	C214.413,298.881,217.475,295.251,217.122,291.123z"/>
<g>
</g>
<g>
</g>
<g>
</g>
<g>
</g>
<g>
</g>
<g>
</g>
<g>
</g>
<g>
</g>
<g>
</g>
<g>
</g>
<g>
</g>
<g>
</g>
<g>
</g>
<g>
</g>
<g>
</g>
</svg>
